<svg xmlns="http://www.w3.org/2000/svg" version="1.0" width="1008.000000pt" height="363.000000pt" viewBox="0 0 1008.000000 363.000000" preserveAspectRatio="xMidYMid meet"><script xmlns="" type="text/javascript" charset="utf-8" id="zm-extension"/>

<g transform="translate(0.000000,363.000000) scale(0.100000,-0.100000)" fill="#000000" stroke="none">
<path d="M1283 2877 l-593 -342 0 -690 0 -690 600 -347 601 -346 599 346 600 346 0 691 0 690 -594 343 c-326 188 -599 342 -607 342 -8 -1 -281 -155 -606 -343z m882 -5 l270 -157 3 -193 c1 -105 -1 -192 -5 -192 -5 0 -152 144 -327 319 l-319 319 29 18 c16 9 38 23 49 30 11 7 22 13 25 13 3 0 127 -71 275 -157z m-375 -147 l155 -155 -419 0 c-231 0 -416 3 -412 8 8 8 508 300 516 301 3 1 75 -69 160 -154z m983 -205 l147 -84 0 -166 0 -165 -155 -155 -155 -155 0 408 c0 225 3 407 8 405 4 -1 74 -41 155 -88z m-1628 -390 c-148 -148 -273 -270 -277 -270 -5 0 -8 122 -8 270 l0 270 277 0 278 0 -270 -270z m920 240 c178 -67 320 -226 355 -397 17 -82 8 -235 -18 -308 -62 -170 -217 -308 -393 -350 -265 -62 -542 87 -640 345 -114 300 63 637 381 725 80 22 237 15 315 -15z m-917 -1080 l-3 -200 -142 82 -143 81 0 175 0 175 143 144 142 144 3 -201 c1 -110 1 -290 0 -400z m1772 285 l0 -275 -282 0 -283 0 275 275 c151 151 278 275 282 275 5 0 8 -124 8 -275z m-979 -887 l-50 -29 -283 163 -283 164 -2 204 -2 205 335 -339 335 -339 -50 -29z m744 433 c-16 -15 -532 -311 -542 -311 -10 0 -303 304 -303 314 0 3 192 6 427 6 258 0 423 -4 418 -9z"/>
<path d="M3530 1845 l0 -595 110 0 110 0 2 253 3 252 260 0 260 0 3 -252 2 -253 110 0 110 0 0 595 0 595 -110 0 -110 0 -2 -237 -3 -238 -260 0 -260 0 -3 238 -2 237 -110 0 -110 0 0 -595z"/>
<path d="M4945 2107 c-129 -34 -226 -115 -284 -237 -35 -73 -36 -79 -36 -190 0 -89 4 -127 19 -166 43 -116 135 -211 246 -256 46 -19 74 -23 175 -23 114 0 123 2 185 31 36 17 80 43 98 59 32 27 97 113 90 120 -1 1 -39 21 -84 43 l-81 41 -34 -35 c-65 -68 -144 -93 -236 -74 -65 14 -126 63 -154 125 -37 80 -59 75 302 75 l321 0 -4 103 c-3 89 -8 111 -35 169 -40 85 -106 151 -190 190 -55 26 -80 31 -157 34 -54 2 -111 -2 -141 -9z m182 -162 c28 -8 62 -24 77 -36 25 -20 66 -87 66 -109 0 -6 -74 -10 -220 -10 l-220 0 19 38 c28 54 73 92 133 113 65 23 81 23 145 4z"/>
<path d="M6785 2107 c-64 -21 -107 -46 -147 -85 l-38 -36 0 57 0 57 -110 0 -110 0 0 -595 0 -595 110 0 110 0 0 216 0 216 39 -31 c76 -60 125 -76 236 -76 87 0 107 3 157 27 179 83 272 279 239 499 -23 148 -101 263 -218 321 -54 26 -79 32 -146 35 -50 2 -98 -2 -122 -10z m100 -198 c54 -14 118 -67 148 -123 30 -57 30 -165 0 -221 -75 -142 -246 -178 -363 -77 -47 39 -65 71 -80 138 -20 88 23 203 95 250 63 41 126 52 200 33z"/>
<path d="M8708 2109 c-120 -28 -238 -125 -291 -237 -28 -60 -32 -78 -35 -177 -3 -93 -1 -120 18 -174 65 -195 236 -303 455 -288 107 7 182 36 250 98 61 56 102 116 89 129 -5 5 -43 27 -86 50 l-76 41 -49 -48 c-91 -91 -217 -98 -312 -16 -118 100 -95 335 39 403 95 48 187 34 261 -40 40 -40 49 -45 65 -34 10 6 51 30 91 53 l72 41 -19 33 c-47 79 -144 144 -248 166 -61 13 -170 13 -224 0z"/>
<path d="M5530 2000 l0 -100 125 0 125 0 0 -325 0 -325 110 0 110 0 0 325 0 325 125 0 125 0 0 100 0 100 -360 0 -360 0 0 -100z"/>
<path d="M7430 1675 l0 -425 111 0 110 0 182 277 182 276 3 -276 2 -277 100 0 100 0 0 425 0 425 -108 0 -109 0 -184 -276 -184 -277 -3 277 -2 276 -100 0 -100 0 0 -425z"/>
</g>
</svg>